<svg width="16" height="16" viewBox="0 0 16 16" fill="none" xmlns="http://www.w3.org/2000/svg">
<path d="M15.2 2.3999H0.800001C0.587828 2.3999 0.384344 2.48419 0.234315 2.63422C0.0842856 2.78425 0 2.98773 0 3.1999C0 3.41208 0.0842856 3.61556 0.234315 3.76559C0.384344 3.91562 0.587828 3.9999 0.800001 3.9999H2.4V13.5999C2.40019 14.2364 2.65311 14.8467 3.10316 15.2968C3.55321 15.7468 4.16354 15.9997 4.80001 15.9999H11.2C11.8365 15.9997 12.4468 15.7468 12.8969 15.2968C13.3469 14.8467 13.5998 14.2364 13.6 13.5999V3.9999H15.2C15.4122 3.9999 15.6157 3.91562 15.7657 3.76559C15.9157 3.61556 16 3.41208 16 3.1999C16 2.98773 15.9157 2.78425 15.7657 2.63422C15.6157 2.48419 15.4122 2.3999 15.2 2.3999ZM7.20001 11.1999C7.20001 11.4121 7.11572 11.6156 6.9657 11.7656C6.81567 11.9156 6.61218 11.9999 6.40001 11.9999C6.18784 11.9999 5.98435 11.9156 5.83432 11.7656C5.68429 11.6156 5.60001 11.4121 5.60001 11.1999V7.19991C5.60001 6.98773 5.68429 6.78425 5.83432 6.63422C5.98435 6.48419 6.18784 6.39991 6.40001 6.39991C6.61218 6.39991 6.81567 6.48419 6.9657 6.63422C7.11572 6.78425 7.20001 6.98773 7.20001 7.19991V11.1999ZM10.4 11.1999C10.4 11.4121 10.3157 11.6156 10.1657 11.7656C10.0157 11.9156 9.81219 11.9999 9.60001 11.9999C9.38784 11.9999 9.18436 11.9156 9.03433 11.7656C8.8843 11.6156 8.80001 11.4121 8.80001 11.1999V7.19991C8.80001 6.98773 8.8843 6.78425 9.03433 6.63422C9.18436 6.48419 9.38784 6.39991 9.60001 6.39991C9.81219 6.39991 10.0157 6.48419 10.1657 6.63422C10.3157 6.78425 10.4 6.98773 10.4 7.19991V11.1999Z" fill="#E96C77"/>
<path d="M6.39998 1.6H9.59998C9.81215 1.6 10.0156 1.51572 10.1657 1.36569C10.3157 1.21566 10.4 1.01217 10.4 0.800001C10.4 0.587827 10.3157 0.384344 10.1657 0.234315C10.0156 0.0842855 9.81215 0 9.59998 0H6.39998C6.1878 0 5.98432 0.0842855 5.83429 0.234315C5.68426 0.384344 5.59998 0.587827 5.59998 0.800001C5.59998 1.01217 5.68426 1.21566 5.83429 1.36569C5.98432 1.51572 6.1878 1.6 6.39998 1.6Z" fill="#E96C77"/>
</svg>
