<svg width="57" height="41" viewBox="0 0 57 41" fill="none" xmlns="http://www.w3.org/2000/svg">
<path d="M56.6204 16.8308L50.3574 4.17814C49.2819 1.96393 47.0677 0.572144 44.5372 0.572144H12.3996C9.86903 0.572144 7.71809 1.90067 6.57935 4.17814L0.316315 16.7675C0.126526 17.1471 0 17.5899 0 17.9695V34.9873C0 37.9606 2.404 40.4279 5.44062 40.4279H51.5594C54.5327 40.4279 57 38.0239 57 34.9873V18.0328C56.9367 17.5899 56.8102 17.1471 56.6204 16.8308ZM39.4761 15.3124C38.2109 15.3124 37.1354 16.1981 36.8191 17.4634C36.7558 17.7164 35.3008 24.4856 28.4051 24.4856C21.6992 24.4856 20.1809 18.2225 19.9911 17.4634C19.7381 16.1981 18.6626 15.3124 17.3341 15.3124H7.08546L11.4506 6.58214C11.6404 6.26582 12.02 5.94951 12.3996 5.94951H44.5372C44.9167 5.94951 45.2963 6.1393 45.4861 6.58214L49.788 15.3124H39.4761Z" fill="#DFE2E4"/>
</svg>
