<svg width="16" height="16" viewBox="0 0 16 16" fill="none" xmlns="http://www.w3.org/2000/svg">
<path d="M13.631 5.30066C13.4589 5.1527 13.286 5.01135 13.1126 4.87598L11.0907 6.89789C11.2139 7.24248 11.2812 7.61345 11.2812 7.99986C11.2812 9.80914 9.80925 11.2811 7.99996 11.2811C7.61356 11.2811 7.24259 11.2138 6.89799 11.0905L5.38055 12.608C6.26668 12.9715 7.14559 13.1561 7.99996 13.1561C9.0205 13.1561 10.076 12.8937 11.137 12.3763C11.9702 11.9699 12.8093 11.4055 13.631 10.699C15.0202 9.50448 15.876 8.32329 15.9118 8.27357C16.0294 8.11007 16.0294 7.88967 15.9118 7.72614C15.876 7.67642 15.0202 6.49523 13.631 5.30066Z" fill="#E9283A"/>
<path d="M7.99995 10.3439C9.29229 10.3439 10.3437 9.29248 10.3437 8.00013C10.3437 7.8877 10.3353 7.7772 10.3199 7.66895L7.66876 10.32C7.77704 10.3354 7.88751 10.3439 7.99995 10.3439Z" fill="#E9283A"/>
<path d="M15.8627 0.137273C15.6796 -0.0457578 15.3828 -0.0457578 15.1998 0.137273L11.517 3.82002C11.3903 3.75102 11.2635 3.6853 11.137 3.62359C10.076 3.10609 9.02049 2.84371 7.99996 2.84371C6.97943 2.84371 5.92396 3.10609 4.86296 3.62355C4.02977 4.02996 3.19065 4.59427 2.36893 5.30077C0.979743 6.49534 0.123931 7.67652 0.0881811 7.72624C-0.0294751 7.88974 -0.0294751 8.11015 0.0881811 8.27368C0.123931 8.3234 0.979712 9.50462 2.36893 10.6991C2.79465 11.0652 3.22505 11.3926 3.65687 11.6801L0.137275 15.1998C-0.0457876 15.3828 -0.0457876 15.6796 0.137275 15.8627C0.228806 15.9542 0.348743 16 0.468712 16C0.588681 16 0.708649 15.9542 0.800149 15.8626L15.8626 0.800148C16.0457 0.617117 16.0457 0.320305 15.8627 0.137273ZM4.71871 7.99996C4.71871 6.19068 6.19068 4.71871 7.99996 4.71871C8.73593 4.71871 9.41605 4.96227 9.96402 5.37302L9.29152 6.04552C8.92093 5.79977 8.47699 5.65621 7.99996 5.65621C6.70761 5.65621 5.65621 6.70762 5.65621 7.99996C5.65621 8.47696 5.79977 8.9209 6.04552 9.29152L5.37302 9.96402C4.96227 9.41605 4.71871 8.73593 4.71871 7.99996Z" fill="#E9283A"/>
</svg>
